<?xml version="1.0" standalone="no"?>
<!DOCTYPE svg PUBLIC "-//W3C//DTD SVG 20010904//EN"
 "http://www.w3.org/TR/2001/REC-SVG-20010904/DTD/svg10.dtd">
<svg version="1.0" xmlns="http://www.w3.org/2000/svg"
 width="900.000000pt" height="900.000000pt" viewBox="0 0 900.000000 900.000000"
 preserveAspectRatio="xMidYMid meet">
<metadata>
Created by potrace 1.11, written by Peter Selinger 2001-2013
</metadata>
<g transform="translate(0.000000,900.000000) scale(0.100000,-0.100000)"
fill="#000000" stroke="none">
<path d="M4248 8325 c-2 -2 -37 -6 -78 -10 -397 -34 -755 -122 -1135 -277
-223 -92 -516 -251 -710 -386 -72 -51 -202 -148 -215 -162 -3 -3 -27 -23 -55
-45 -81 -64 -142 -121 -288 -269 -407 -411 -717 -916 -901 -1466 -59 -179
-123 -432 -141 -560 -3 -25 -8 -52 -10 -60 -2 -8 -7 -41 -10 -73 -4 -32 -8
-67 -10 -78 -13 -66 -20 -226 -20 -444 1 -222 5 -312 20 -435 3 -19 7 -55 10
-80 3 -25 7 -56 10 -70 3 -13 7 -42 10 -65 3 -22 8 -47 10 -55 2 -8 7 -28 10
-45 59 -339 230 -795 431 -1147 83 -145 299 -461 334 -488 3 -3 13 -14 21 -26
45 -66 304 -337 424 -444 502 -448 1139 -767 1790 -896 11 -2 31 -6 45 -9 14
-2 41 -7 60 -10 19 -3 46 -8 60 -10 33 -7 128 -18 265 -32 159 -16 648 -8 767
12 12 2 44 7 70 9 438 51 967 230 1388 471 188 107 478 315 630 451 131 117
336 329 415 429 22 28 42 52 45 55 3 3 35 43 71 90 236 307 439 692 573 1092
42 125 113 386 121 446 2 15 6 38 9 52 3 14 8 37 10 52 42 263 51 376 51 663
0 211 -5 324 -20 430 -2 17 -7 59 -10 95 -4 36 -9 68 -11 71 -2 3 -6 21 -9 40
-21 123 -30 169 -61 294 -114 457 -338 938 -608 1305 -57 77 -192 246 -241
300 -51 57 -254 261 -320 321 -131 119 -386 310 -527 394 -267 159 -490 266
-737 354 -99 36 -264 87 -307 95 -10 2 -55 13 -99 25 -74 19 -214 46 -294 57
-19 2 -46 6 -60 9 -14 2 -53 7 -86 10 -33 4 -76 9 -95 12 -37 5 -587 13 -592
8z m562 -529 c260 -34 309 -42 483 -85 595 -145 1160 -472 1592 -922 344 -358
601 -786 761 -1266 33 -101 96 -344 108 -423 3 -19 11 -66 17 -105 6 -38 12
-81 14 -94 26 -158 26 -647 0 -802 -2 -13 -6 -42 -10 -64 -36 -246 -100 -492
-188 -725 -65 -173 -195 -429 -294 -582 -139 -214 -274 -381 -457 -563 -277
-277 -556 -477 -896 -642 -183 -89 -430 -180 -600 -223 -19 -5 -55 -14 -79
-20 -24 -7 -54 -14 -65 -16 -27 -5 -135 -25 -161 -29 -29 -5 -169 -23 -245
-32 -89 -10 -466 -10 -570 0 -679 64 -1276 306 -1805 731 -105 84 -349 322
-428 416 -338 403 -540 788 -687 1310 -27 93 -60 265 -85 435 -27 183 -26 630
1 812 48 330 105 548 215 826 226 572 648 1104 1171 1474 471 334 1052 545
1618 588 47 4 87 9 89 10 5 6 450 -3 501 -9z"/>
<path d="M3716 5628 c-43 -117 -98 -267 -123 -333 -25 -66 -60 -160 -78 -210
-18 -49 -53 -146 -78 -215 -25 -69 -56 -152 -67 -185 -12 -33 -27 -73 -34 -90
-7 -16 -18 -43 -24 -60 -24 -67 -495 -1351 -499 -1363 -4 -10 54 -12 283 -10
l288 3 33 90 c18 50 42 113 52 140 22 57 447 1213 497 1350 17 50 70 194 117
320 214 580 277 754 277 764 0 8 -84 11 -283 11 l-284 0 -77 -212z"/>
<path d="M5525 5828 c-85 -238 -194 -536 -204 -558 -6 -14 -45 -119 -86 -235
-42 -115 -79 -217 -82 -225 -4 -8 -16 -42 -28 -75 l-22 -60 -440 -3 c-408 -2
-441 -4 -448 -20 -13 -31 -86 -225 -120 -318 l-33 -91 434 0 c239 0 436 -2
439 -5 3 -3 -6 -36 -21 -74 -14 -38 -36 -100 -50 -139 -13 -38 -28 -79 -33
-90 -5 -11 -37 -96 -71 -190 -99 -271 -160 -438 -169 -460 -14 -32 -41 -110
-41 -118 0 -4 129 -6 286 -5 l286 3 24 65 c14 36 32 85 40 110 9 25 39 106 66
180 28 74 65 176 83 225 104 287 177 481 185 489 6 6 71 10 146 10 l136 1 79
210 c43 116 79 211 79 213 0 1 -63 2 -140 2 -77 0 -140 2 -140 4 0 10 71 208
106 296 7 19 45 123 84 230 39 107 75 204 80 215 4 11 22 58 39 105 16 47 48
135 70 195 23 61 41 113 41 118 0 4 -128 7 -285 7 -220 0 -287 -3 -290 -12z"/>
</g>
</svg>
