<svg xmlns="http://www.w3.org/2000/svg" viewBox="0 0 289.3 73.5" enable-background="new 0 0 289.3 73.5"><style type="text/css">.st0{fill:#FFFFFF;}</style><path class="st0" d="M113.6 32.9h-13.2v-13.6h-4.5v32.4h4.5v-14.7h13.2v14.7h4.4v-32.4h-4.4zM134.2 45.6l-6.7-17.5h-4.5l9.2 23.6-.1.2c-1.4 4.1-2.7 4.5-5.6 4.5h-.2v4.1h.2c6.7 0 8-2.8 9.9-8.2l8.3-24.2h-4.5l-6 17.5zM159.1 27.7c-2.7 0-4.7.7-6 2.2v-1.9h-4.2v32.4h4.2v-10.5c1.4 1.5 3.4 2.2 6 2.2 6 0 9.5-4 9.5-10.7v-3.1c0-6.6-3.6-10.6-9.5-10.6zm5.3 10.6v3.1c0 4.2-2.2 6.9-5.7 6.9-4.9 0-5.7-4.3-5.7-6.9v-3.4c0-4 2.1-6.5 5.7-6.5 3.6.1 5.7 2.5 5.7 6.8zM182.6 27.7c-6.1 0-9.4 3.8-9.4 10.6v3.1c0 6.6 3.9 10.7 10.2 10.7 4.2 0 6.7-1.2 8.3-4l.1-.2-3.3-2.3-.1.2c-1 1.8-2.5 2.5-5.3 2.5-3.6 0-5.7-2.6-5.7-6.9v-.4h14.6v-2.7c0-6.9-3.2-10.6-9.4-10.6zm0 3.9c3.2 0 4.9 1.9 5.2 5.7h-10.3c.2-3.8 2-5.7 5.1-5.7zM207.7 27.7c-2.3 0-4 .7-5.1 2.1v-1.7h-4.2v23.6h4.2v-14.7c0-3.2 1.9-5.4 4.7-5.4 1.6 0 2.8.6 3.7 1.8l.1.2 3.6-2.5-.1-.2c-1.7-2.2-3.8-3.2-6.9-3.2zM228.1 27.7c-2.9 0-4.7.6-6 2.1v-1.8h-4.1v23.6h4.2v-14.5c0-3.2 2.2-5.4 5.4-5.4 2.2 0 5 .6 5 5.4v14.6h4.2v-14.6c0-7.8-4.7-9.4-8.7-9.4zM252 27.7c-6.1 0-9.4 3.8-9.4 10.6v3.1c0 6.6 3.9 10.7 10.2 10.7 4.2 0 6.7-1.2 8.3-4l.1-.2-3.3-2.3-.1.2c-1 1.8-2.5 2.5-5.3 2.5-3.6 0-5.7-2.6-5.7-6.9v-.4h14.6v-2.7c0-6.9-3.3-10.6-9.4-10.6zm0 3.9c3.2 0 4.9 1.9 5.2 5.7h-10.3c.2-3.8 1.9-5.7 5.1-5.7zM272.8 23h-4.2v5.1h-3v3.8h3v12.4c0 5.3 2 7.4 7.3 7.4h2.2v-4h-2.1c-2.8 0-3.2-1-3.2-4.3v-11.5h5.3v-3.8h-5.3v-5.1zM283.4 45.9h5.9v5.9h-5.9zM36.7 73.5c-20.2 0-36.7-16.5-36.7-36.8 0-20.2 16.5-36.7 36.7-36.7s36.7 16.5 36.7 36.7c.1 20.3-16.4 36.8-36.7 36.8zm0-68.5c-17.5 0-31.7 14.2-31.7 31.7s14.2 31.7 31.7 31.7 31.7-14.2 31.7-31.7c.1-17.5-14.1-31.7-31.7-31.7zM30 23.9l-9.5 25.7h5.5l9.5-25.7zM52.1 23.9h-5.5l-4.1 11.2h-8.4l-1.6 4.1h8.5l-3.8 10.4h5.5l3.8-10.4h2.7l1.6-4.1h-2.8z"/></svg>