<!-- Generator: Adobe Illustrator 22.0.1, SVG Export Plug-In  -->
<svg version="1.1"
	 xmlns="http://www.w3.org/2000/svg" xmlns:xlink="http://www.w3.org/1999/xlink" xmlns:a="http://ns.adobe.com/AdobeSVGViewerExtensions/3.0/"
	 x="0px" y="0px" width="289.3px" height="73.5px" viewBox="0 0 289.3 73.5" style="enable-background:new 0 0 289.3 73.5;"
	 xml:space="preserve">
<defs>
</defs>
<polygon points="113.6,32.9 100.4,32.9 100.4,19.3 95.9,19.3 95.9,51.7 100.4,51.7 100.4,37 113.6,37 113.6,51.7 118,51.7 118,19.3 
	113.6,19.3 "/>
<path d="M134.2,45.6l-6.7-17.5H123l9.2,23.6l-0.1,0.2c-1.4,4.1-2.7,4.5-5.6,4.5h-0.2v4.1h0.2c6.7,0,8-2.8,9.9-8.2l8.3-24.2h-4.5
	L134.2,45.6z"/>
<path d="M159.1,27.7c-2.7,0-4.7,0.7-6,2.2v-1.9h-4.2v32.4h4.2V49.9c1.4,1.5,3.4,2.2,6,2.2c6,0,9.5-4,9.5-10.7v-3.1
	C168.6,31.7,165,27.7,159.1,27.7z M164.4,38.3v3.1c0,4.2-2.2,6.9-5.7,6.9c-4.9,0-5.7-4.3-5.7-6.9V38c0-4,2.1-6.5,5.7-6.5
	C162.3,31.6,164.4,34,164.4,38.3z"/>
<path d="M182.6,27.7c-6.1,0-9.4,3.8-9.4,10.6v3.1c0,6.6,3.9,10.7,10.2,10.7c4.2,0,6.7-1.2,8.3-4l0.1-0.2l-3.3-2.3l-0.1,0.2
	c-1,1.8-2.5,2.5-5.3,2.5c-3.6,0-5.7-2.6-5.7-6.9V41H192v-2.7C192,31.4,188.8,27.7,182.6,27.7z M182.6,31.6c3.2,0,4.9,1.9,5.2,5.7
	h-10.3C177.7,33.5,179.5,31.6,182.6,31.6z"/>
<path d="M207.7,27.7c-2.3,0-4,0.7-5.1,2.1v-1.7h-4.2v23.6h4.2V37c0-3.2,1.9-5.4,4.7-5.4c1.6,0,2.8,0.6,3.7,1.8l0.1,0.2l3.6-2.5
	l-0.1-0.2C212.9,28.7,210.8,27.7,207.7,27.7z"/>
<path d="M228.1,27.7c-2.9,0-4.7,0.6-6,2.1v-1.8H218v23.6h4.2V37.1c0-3.2,2.2-5.4,5.4-5.4c2.2,0,5,0.6,5,5.4v14.6h4.2V37.1
	C236.8,29.3,232.1,27.7,228.1,27.7z"/>
<path d="M252,27.7c-6.1,0-9.4,3.8-9.4,10.6v3.1c0,6.6,3.9,10.7,10.2,10.7c4.2,0,6.7-1.2,8.3-4l0.1-0.2l-3.3-2.3l-0.1,0.2
	c-1,1.8-2.5,2.5-5.3,2.5c-3.6,0-5.7-2.6-5.7-6.9V41h14.6v-2.7C261.4,31.4,258.1,27.7,252,27.7z M252,31.6c3.2,0,4.9,1.9,5.2,5.7
	h-10.3C247.1,33.5,248.8,31.6,252,31.6z"/>
<path d="M272.8,23h-4.2v5.1h-3v3.8h3v12.4c0,5.3,2,7.4,7.3,7.4h2.2v-4H276c-2.8,0-3.2-1-3.2-4.3V31.9h5.3v-3.8h-5.3V23z"/>
<rect x="283.4" y="45.9" width="5.9" height="5.9"/>
<path d="M36.7,73.5C16.5,73.5,0,57,0,36.7C0,16.5,16.5,0,36.7,0s36.7,16.5,36.7,36.7C73.5,57,57,73.5,36.7,73.5z M36.7,5
	C19.2,5,5,19.2,5,36.7c0,17.5,14.2,31.7,31.7,31.7s31.7-14.2,31.7-31.7C68.5,19.2,54.3,5,36.7,5z"/>
<g>
	<polygon points="30,23.9 20.5,49.6 26,49.6 35.5,23.9 	"/>
	<polygon points="52.1,23.9 46.6,23.9 42.5,35.1 34.1,35.1 32.5,39.2 41,39.2 37.2,49.6 42.7,49.6 46.5,39.2 49.2,39.2 50.8,35.1 
		48,35.1 	"/>
</g>
</svg>
